<?xml version="1.0" standalone="no"?>
<!DOCTYPE svg PUBLIC "-//W3C//DTD SVG 20010904//EN"
 "http://www.w3.org/TR/2001/REC-SVG-20010904/DTD/svg10.dtd">
<svg version="1.0" xmlns="http://www.w3.org/2000/svg"
 width="500.000000pt" height="500.000000pt" viewBox="0 0 500.000000 500.000000"
 preserveAspectRatio="xMidYMid meet">
<metadata>
Created by potrace 1.14, written by Peter Selinger 2001-2017
</metadata>
<g transform="translate(0.000000,500.000000) scale(0.100000,-0.100000)"
fill="#000000" stroke="none">
<path d="M2339 4326 c-2 -2 -33 -7 -68 -10 -251 -26 -479 -102 -701 -234 -314
-186 -561 -460 -732 -812 -65 -133 -102 -244 -132 -395 -59 -302 -55 -514 19
-850 10 -43 47 -153 67 -195 11 -25 32 -69 45 -98 46 -103 212 -362 232 -362
4 0 15 -14 25 -31 45 -76 287 -295 426 -384 152 -99 398 -206 525 -231 22 -4
42 -8 45 -9 17 -5 120 -25 145 -29 17 -2 49 -7 71 -11 68 -10 284 -13 354 -4
36 4 85 11 110 14 25 3 72 13 105 21 33 9 71 18 84 21 24 4 129 37 161 50 8 3
20 7 25 9 6 1 33 12 60 25 28 12 52 23 55 23 13 3 133 68 195 106 350 214 663
608 788 995 31 94 74 303 84 407 12 120 6 324 -12 423 -49 265 -71 335 -156
510 -52 107 -151 269 -204 334 -38 46 -150 176 -166 192 -46 46 -189 169 -198
169 -5 0 -11 3 -13 8 -10 23 -151 110 -293 180 -94 46 -256 105 -318 116 -15
3 -35 7 -45 10 -77 24 -264 44 -413 45 -92 0 -168 -2 -170 -3z"/>
</g>
</svg>
